<?xml version="1.0" encoding="UTF-8" standalone="no"?>
<svg
   xmlns:dc="http://purl.org/dc/elements/1.1/"
   xmlns:cc="http://creativecommons.org/ns#"
   xmlns:rdf="http://www.w3.org/1999/02/22-rdf-syntax-ns#"
   xmlns:svg="http://www.w3.org/2000/svg"
   xmlns="http://www.w3.org/2000/svg"
   xmlns:sodipodi="http://sodipodi.sourceforge.net/DTD/sodipodi-0.dtd"
   xmlns:inkscape="http://www.inkscape.org/namespaces/inkscape"
   width="6in"
   height="4in"
   viewBox="0 0 152.4 101.6"
   version="1.1"
   id="svg8"
   inkscape:version="1.0.2 (e86c870879, 2021-01-15, custom)"
   sodipodi:docname="template_inch.svg">
  <defs
     id="defs2">
    <clipPath
       clipPathUnits="userSpaceOnUse"
       id="clipEmfPath1">
      <path
         d="M 0,0 L 273.49039,0 L 273.49039,249.42866 L 0,249.42866 z"
         id="path855" />
    </clipPath>
    <clipPath
       clipPathUnits="userSpaceOnUse"
       id="clipEmfPath2">
      <path
         d="M 0.33889764,0.33889764 L 273.49039,0.33889764 L 273.49039,249.42866 L 0.33889764,249.42866 z"
         id="path858" />
    </clipPath>
    <clipPath
       clipPathUnits="userSpaceOnUse"
       id="clipEmfPath3">
      <path
         d="M 0.33889764,13.217008 L 273.49039,13.217008 L 273.49039,26.772913 L 0.33889764,26.772913 z"
         id="path861" />
    </clipPath>
    <clipPath
       clipPathUnits="userSpaceOnUse"
       id="clipEmfPath4">
      <path
         d="M 0.33889764,197.91622 L 273.49039,197.91622 L 273.49039,210.45543 L 0.33889764,210.45543 z"
         id="path864" />
    </clipPath>
    <clipPath
       clipPathUnits="userSpaceOnUse"
       id="clipEmfPath5">
      <path
         d="M 42.023307,197.91622 L 273.1515,197.91622 L 273.1515,210.45543 L 42.023307,210.45543 z"
         id="path867" />
    </clipPath>
    <clipPath
       clipPathUnits="userSpaceOnUse"
       id="clipEmfPath6">
      <path
         d="M 89.807874,210.79433 L 154.53732,210.79433 L 154.53732,223.33354 L 89.807874,223.33354 z"
         id="path870" />
    </clipPath>
    <clipPath
       clipPathUnits="userSpaceOnUse"
       id="clipEmfPath7">
      <path
         d="M 89.807874,223.67244 L 154.53732,223.67244 L 154.53732,236.21165 L 89.807874,236.21165 z"
         id="path873" />
    </clipPath>
    <clipPath
       clipPathUnits="userSpaceOnUse"
       id="clipEmfPath8">
      <path
         d="M 89.807874,236.55055 L 154.53732,236.55055 L 154.53732,249.08976 L 89.807874,249.08976 z"
         id="path876" />
    </clipPath>
    <clipPath
       clipPathUnits="userSpaceOnUse"
       id="clipEmfPath9">
      <path
         d="M 0.33889764,194.52724 L 273.1515,194.52724 L 273.1515,197.57732 L 0.33889764,197.57732 z"
         id="path879" />
    </clipPath>
    <clipPath
       clipPathUnits="userSpaceOnUse"
       id="clipEmfPath10">
      <path
         d="M 42.023307,0.33889764 L 89.468976,0.33889764 L 89.468976,12.87811 L 42.023307,12.87811 z"
         id="path882" />
    </clipPath>
    <clipPath
       clipPathUnits="userSpaceOnUse"
       id="clipEmfPath11">
      <path
         d="M 0.33889764,0.33889764 L 41.684409,0.33889764 L 41.684409,26.772913 L 0.33889764,26.772913 z"
         id="path885" />
    </clipPath>
    <clipPath
       clipPathUnits="userSpaceOnUse"
       id="clipEmfPath12">
      <path
         d="M 89.807874,0.33889764 L 154.53732,0.33889764 L 154.53732,26.772913 L 89.807874,26.772913 z"
         id="path888" />
    </clipPath>
    <clipPath
       clipPathUnits="userSpaceOnUse"
       id="clipEmfPath13">
      <path
         d="M 154.87622,0.33889764 L 216.21669,0.33889764 L 216.21669,26.772913 L 154.87622,26.772913 z"
         id="path891" />
    </clipPath>
    <clipPath
       clipPathUnits="userSpaceOnUse"
       id="clipEmfPath14">
      <path
         d="M 216.55559,0.33889764 L 273.1515,0.33889764 L 273.1515,12.87811 L 216.55559,12.87811 z"
         id="path894" />
    </clipPath>
    <clipPath
       clipPathUnits="userSpaceOnUse"
       id="clipEmfPath15">
      <path
         d="M 154.87622,210.79433 L 216.21669,210.79433 L 216.21669,223.33354 L 154.87622,223.33354 z"
         id="path897" />
    </clipPath>
    <clipPath
       clipPathUnits="userSpaceOnUse"
       id="clipEmfPath16">
      <path
         d="M 154.87622,223.67244 L 216.21669,223.67244 L 216.21669,236.21165 L 154.87622,236.21165 z"
         id="path900" />
    </clipPath>
    <clipPath
       clipPathUnits="userSpaceOnUse"
       id="clipEmfPath17">
      <path
         d="M 154.87622,236.55055 L 216.21669,236.55055 L 216.21669,249.08976 L 154.87622,249.08976 z"
         id="path903" />
    </clipPath>
    <clipPath
       clipPathUnits="userSpaceOnUse"
       id="clipEmfPath18">
      <path
         d="M 216.55559,210.79433 L 273.1515,210.79433 L 273.1515,223.33354 L 216.55559,223.33354 z"
         id="path906" />
    </clipPath>
    <clipPath
       clipPathUnits="userSpaceOnUse"
       id="clipEmfPath19">
      <path
         d="M 216.55559,223.67244 L 273.1515,223.67244 L 273.1515,236.21165 L 216.55559,236.21165 z"
         id="path909" />
    </clipPath>
    <clipPath
       clipPathUnits="userSpaceOnUse"
       id="clipEmfPath20">
      <path
         d="M 216.55559,236.55055 L 273.1515,236.55055 L 273.1515,249.08976 L 216.55559,249.08976 z"
         id="path912" />
    </clipPath>
    <clipPath
       clipPathUnits="userSpaceOnUse"
       id="clipEmfPath21">
      <path
         d="M 216.55559,13.217008 L 273.1515,13.217008 L 273.1515,26.772913 L 216.55559,26.772913 z"
         id="path915" />
    </clipPath>
    <clipPath
       clipPathUnits="userSpaceOnUse"
       id="clipEmfPath22">
      <path
         d="M 0.33984375,0.33984375 V 249.42773 H 273.49023 V 0.33984375 Z"
         id="path918" />
    </clipPath>
    <pattern
       id="EMFhbasepattern"
       patternUnits="userSpaceOnUse"
       width="6"
       height="6"
       x="0"
       y="0" />
  </defs>
  <sodipodi:namedview
     id="base"
     pagecolor="#ffffff"
     bordercolor="#666666"
     borderopacity="1.0"
     inkscape:pageopacity="0.0"
     inkscape:pageshadow="2"
     inkscape:zoom="1.979899"
     inkscape:cx="244.60595"
     inkscape:cy="190.10003"
     inkscape:document-units="in"
     inkscape:current-layer="layer3"
     inkscape:document-rotation="0"
     showgrid="true"
     units="in"
     showguides="true"
     inkscape:guide-bbox="true"
     inkscape:snap-grids="true"
     inkscape:window-width="1920"
     inkscape:window-height="1018"
     inkscape:window-x="-6"
     inkscape:window-y="-6"
     inkscape:window-maximized="1"
     inkscape:snap-text-baseline="false"
     inkscape:snap-center="true"
     inkscape:snap-to-guides="true"
     inkscape:snap-intersection-paths="true">
    <inkscape:grid
       type="xygrid"
       id="grid833"
       originx="76.2"
       originy="50.8"
       units="in"
       spacingx="2.54"
       spacingy="2.54" />
    <sodipodi:guide
       position="76.2,50.8"
       orientation="-1,0"
       id="guide835"
       inkscape:label=""
       inkscape:locked="true"
       inkscape:color="rgb(0,0,255)" />
    <sodipodi:guide
       position="76.2,50.8"
       orientation="0,1"
       id="guide837"
       inkscape:label=""
       inkscape:locked="true"
       inkscape:color="rgb(0,0,255)" />
    <sodipodi:guide
       position="144.78,50.8"
       orientation="-1,0"
       id="guide839"
       inkscape:label=""
       inkscape:locked="true"
       inkscape:color="rgb(0,0,255)" />
    <sodipodi:guide
       position="7.62,50.8"
       orientation="-1,0"
       id="guide841"
       inkscape:label=""
       inkscape:locked="true"
       inkscape:color="rgb(0,0,255)" />
    <sodipodi:guide
       position="143.51,13.97"
       orientation="0,1"
       id="guide845"
       inkscape:label=""
       inkscape:locked="true"
       inkscape:color="rgb(0,0,255)" />
    <sodipodi:guide
       position="76.2,88.9"
       orientation="0,1"
       id="guide847"
       inkscape:label=""
       inkscape:locked="true"
       inkscape:color="rgb(0,0,255)" />
    <sodipodi:guide
       position="76.2,12.7"
       orientation="0,1"
       id="guide849"
       inkscape:label=""
       inkscape:locked="true"
       inkscape:color="rgb(0,0,255)" />
    <sodipodi:guide
       position="76.2,19.05"
       orientation="0,1"
       id="guide853"
       inkscape:label=""
       inkscape:locked="true"
       inkscape:color="rgb(0,0,255)" />
    <sodipodi:guide
       position="76.2,96.52"
       orientation="0,1"
       id="guide855"
       inkscape:label=""
       inkscape:locked="true"
       inkscape:color="rgb(0,0,255)" />
    <sodipodi:guide
       position="93.345,12.7"
       orientation="-1,0"
       id="guide857"
       inkscape:label=""
       inkscape:locked="true"
       inkscape:color="rgb(0,0,255)" />
    <sodipodi:guide
       position="59.055,12.7"
       orientation="-1,0"
       id="guide859"
       inkscape:label=""
       inkscape:locked="true"
       inkscape:color="rgb(0,0,255)" />
    <sodipodi:guide
       position="8.89,87.63"
       orientation="-1,0"
       id="guide870"
       inkscape:label=""
       inkscape:locked="true"
       inkscape:color="rgb(0,0,255)" />
    <sodipodi:guide
       position="8.89,87.63"
       orientation="0,1"
       id="guide873"
       inkscape:label=""
       inkscape:locked="true"
       inkscape:color="rgb(0,0,255)" />
    <sodipodi:guide
       position="143.51,13.97"
       orientation="-1,0"
       id="guide875"
       inkscape:label=""
       inkscape:locked="true"
       inkscape:color="rgb(0,0,255)" />
    <sodipodi:guide
       position="57.785,12.7"
       orientation="-1,0"
       id="guide880"
       inkscape:label=""
       inkscape:locked="true"
       inkscape:color="rgb(0,0,255)" />
    <sodipodi:guide
       position="94.615,12.7"
       orientation="-1,0"
       id="guide882"
       inkscape:label=""
       inkscape:locked="true"
       inkscape:color="rgb(0,0,255)" />
    <sodipodi:guide
       position="76.2,17.78"
       orientation="0,1"
       id="guide884"
       inkscape:label=""
       inkscape:locked="true"
       inkscape:color="rgb(0,0,255)" />
    <sodipodi:guide
       position="76.2,48.26"
       orientation="0,1"
       id="guide3084"
       inkscape:label=""
       inkscape:locked="true"
       inkscape:color="rgb(0,0,255)" />
    <sodipodi:guide
       position="76.2,5.08"
       orientation="0,1"
       id="guide3088"
       inkscape:label=""
       inkscape:locked="true"
       inkscape:color="rgb(0,0,255)" />
    <sodipodi:guide
       position="44.45,50.8"
       orientation="-1,0"
       id="guide3090"
       inkscape:label=""
       inkscape:locked="false"
       inkscape:color="rgb(0,0,255)" />
  </sodipodi:namedview>
  <metadata
     id="metadata5">
    <rdf:RDF>
      <cc:Work
         rdf:about="">
        <dc:format>image/svg+xml</dc:format>
        <dc:type
           rdf:resource="http://purl.org/dc/dcmitype/StillImage" />
        <dc:title />
      </cc:Work>
    </rdf:RDF>
  </metadata>
  <g
     inkscape:label="cutout"
     inkscape:groupmode="layer"
     id="layer1"
     sodipodi:insensitive="true">
    <path
       id="rect851"
       style="fill:#ffffff;fill-opacity:1;stroke:#000000;stroke-width:0.264999"
       d="m 93.345205,88.899999 h 48.259585 c 1.75895,0 3.175,-1.41605 3.175,-3.175 V 15.875 c 0,-1.75895 -1.41605,-3.175 -3.175,-3.175 H 10.795207 c -1.7589505,0 -3.1750005,1.41605 -3.1750005,3.175 v 69.849999 c 0,1.75895 1.41605,3.175 3.1750005,3.175 h 48.259586 c 0,-0.35179 0.03539,-0.695003 0.102836,-1.026294 0.06745,-0.331291 0.167399,-0.650895 0.29559,-0.95498 0.12819,-0.304086 0.284929,-0.592824 0.467153,-0.862997 0.182227,-0.270173 0.389533,-0.521306 0.619086,-0.750859 0.229552,-0.229552 0.481203,-0.437375 0.751374,-0.6196 0.270174,-0.182225 0.558911,-0.338964 0.862997,-0.467155 0.304085,-0.12819 0.623689,-0.227623 0.954979,-0.295072 0.331292,-0.06745 0.674505,-0.102836 1.026295,-0.102836 h 24.129793 c 0.35179,0 0.695002,0.03539 1.026295,0.102836 0.33129,0.06745 0.650893,0.166882 0.954979,0.295072 0.304086,0.128191 0.592823,0.28493 0.862997,0.467155 0.270171,0.182225 0.521822,0.390048 0.751374,0.6196 0.229553,0.229553 0.436859,0.480686 0.619085,0.750859 0.182224,0.270173 0.338963,0.558911 0.467154,0.862997 0.128191,0.304085 0.22814,0.623689 0.29559,0.95498 0.06745,0.331291 0.102835,0.674504 0.102835,1.026294 z" />
  </g>
  <g
     inkscape:groupmode="layer"
     id="layer2"
     inkscape:label="inner_frame"
     style="display:inline"
     sodipodi:insensitive="true">
    <path
       id="rect877"
       style="fill:#ffffff;fill-opacity:1;stroke:#000000;stroke-width:0.264999"
       d="m 94.487771,87.627486 h 47.117019 c 1.05537,0 1.90531,-0.849423 1.90531,-1.904793 V 15.872694 c 0,-1.05537 -0.84994,-1.904794 -1.90531,-1.904794 H 10.795206 c -1.05537,0 -1.9053096,0.849424 -1.9053096,1.904794 v 69.849999 c 0,1.05537 0.8499396,1.904793 1.9053096,1.904793 h 47.117021 c 7.93e-4,-0.0042 7.93e-4,-0.0087 0.0016,-0.01292 0.08431,-0.414115 0.208214,-0.813102 0.368454,-1.193209 0.160236,-0.380107 0.356679,-0.741289 0.584459,-1.079004 0.227782,-0.337716 0.487172,-0.65202 0.774112,-0.938961 0.286941,-0.286941 0.601245,-0.546331 0.938962,-0.774113 0.337716,-0.227782 0.698897,-0.423705 1.079005,-0.583944 0.380106,-0.160238 0.779095,-0.284658 1.193207,-0.368969 0.414078,-0.08431 0.843352,-0.128674 1.283089,-0.128674 h 24.129793 c 0.439738,0 0.869011,0.04436 1.283126,0.128674 0.414113,0.08431 0.813102,0.208732 1.193208,0.36897 0.380108,0.160238 0.741288,0.356162 1.079005,0.583944 0.337717,0.227781 0.652021,0.487172 0.938961,0.774113 0.286941,0.28694 0.54633,0.601245 0.774113,0.93896 0.22778,0.337716 0.424222,0.698897 0.584459,1.079004 0.16024,0.380107 0.284144,0.779095 0.368454,1.193209 7.93e-4,0.0042 7.93e-4,0.0087 0.0016,0.01292 z" />
  </g>
  <g
     inkscape:groupmode="layer"
     id="layer3"
     inkscape:label="Content" />
</svg>
